<svg height="32" viewBox="0 0 32 32" width="32" xmlns="http://www.w3.org/2000/svg" xmlns:xlink="http://www.w3.org/1999/xlink"><linearGradient id="a" gradientUnits="userSpaceOnUse" x1="4" x2="28" y1="31" y2="1"><stop offset="0" stop-color="#083fa6"/><stop offset="1" stop-color="#2dcbfd"/></linearGradient><g fill-rule="evenodd" stroke-linecap="square"><path d="m7 0c-2.216 0-4 1.784-4 4v24c0 2.216 1.784 4 4 4h18c2.216 0 4-1.784 4-4v-16l-12-12zm13 0 9 9v-9z" fill="url(#a)"/><path d="m3 27v1c0 2.216 1.784 4 4 4h18c2.216 0 4-1.784 4-4v-1c0 2.216-1.784 4-4 4h-18c-2.216 0-4-1.784-4-4z" fill-opacity=".19862"/><path d="m20 0h1.4l7.6 7.6v1.4z" fill-opacity=".20149"/><g fill="#fafafa"><rect height="1" ry=".5" width="7" x="8" y="13"/><rect height="1" ry=".5" width="7" x="8" y="15"/><rect height="1" ry=".5" width="7" x="8" y="17"/><rect height="1" ry=".5" width="16" x="8" y="20"/><rect height="1" ry=".5" width="16" x="8" y="22"/><rect height="1" ry=".5" width="7" x="8" y="24"/></g><path d="m18 13c-.554 0-1 .446-1 1v3c0 .554.446 1 1 1h5c.554 0 1-.446 1-1v-3c0-.554-.446-1-1-1zm4.5 1a.5.5 0 0 1 .5.5.5.5 0 0 1 -.5.5.5.5 0 0 1 -.5-.5.5.5 0 0 1 .5-.5zm-3.1641.5293a.61803.61803 0 0 1 .37109.17773l2.293 2.293h-4l.68359-2.0508a.61803.61803 0 0 1 .65234-.41992z" fill="#9ae9f9"/></g></svg>